<svg xmlns="http://www.w3.org/2000/svg" viewBox="0 0 890 620.84"><defs><style>.a{fill:#ffcd38;}.b{fill:#2a2a2a;}.c{fill:#fff;}.d{fill:none;stroke:#2a2a2a;stroke-linecap:round;stroke-linejoin:round;}</style></defs><title>Главный экран</title><path class="a" d="M16.73,280.17c-28.55,52.23-38.55,259.1,122.34,279.71S430,652.5,481.83,633.73C642.79,575.46,850.31,537.89,872,503s20.55-216.66-26.84-274.68C796.42,168.63,617.64,95.76,458.06,72.9,301.56,50.48,50.55,218.33,16.73,280.17Z" transform="translate(0 -31.36)"/><path class="b" d="M73.26,559.81a6.18,6.18,0,0,1-3.4-1.83,3.46,3.46,0,0,1-.88-2.07,51.41,51.41,0,0,1,2.75-5.78c.41-.75,1.83-3.44,3.15-6a35.93,35.93,0,0,0,4-9.88c.32-1.09.59-2,.59-2.13a3.23,3.23,0,0,0-1.25-.39,12.23,12.23,0,0,1-2.31-.71c-1.21-.56-1,0-2.35-5.19-.53-2-1.55-5.65-2.25-8.18-1.47-5.24-1.5-5.37-3.43-14-1.79-8-3.62-17.36-4.24-21.7-.49-3.37-1-8.42-1.32-12.33l-.16-2.13-.76-1.77c-.75-1.75-.76-1.78-.6-2.46a14.9,14.9,0,0,1,.72-2l.56-1.29-.44-1c-1-2.17-1-2.79-.27-4.14l.56-1-1.1-4.13c-1.63-6.1-2.28-9-3.77-16.68-1.2-6.18-1.59-8.31-2.49-13.72-.42-2.53-1.29-7.49-1.93-11C51.67,402.9,50,393,50,392.55c0-.07-.35-.24-.79-.36a27.21,27.21,0,0,1-9.66-5.34,18.54,18.54,0,0,1-1.64-1.59l-.44-.55H36.36a7.7,7.7,0,0,1-1.6-.14,6.62,6.62,0,0,1-2.63-2.72c-1.23-2.07-3.81-7.09-4.48-8.74a69.94,69.94,0,0,1-3.6-11.52,84.69,84.69,0,0,1-2.53-17.29,27.93,27.93,0,0,1,1.24-9.8,4.51,4.51,0,0,0,.12-1.92,4,4,0,0,1,1-3.28,3.93,3.93,0,0,0,.77-2.5c.26-2.42,2.09-13.26,3.09-18.32a136.61,136.61,0,0,1,7.38-24.91c1.64-4.23,2.3-5.65,3.29-7.12.56-.84.67-.92,2.32-1.78l8.57-4.47,9.9-5.14,3-1.59,2.28-2.4c1.26-1.32,2.52-2.74,2.81-3.16a7.54,7.54,0,0,1,1.29-1.37,2.61,2.61,0,0,0,.77-.82c0-2-.28-8.26-.35-8.77s-.14-.72-.77-1.12a10.57,10.57,0,0,1-3.2-3.76,7.08,7.08,0,0,1-.89-3.74,6.87,6.87,0,0,1,1.39-4.59,4.37,4.37,0,0,1,.69-.61c.22-.12.22-.23,0-1.84a20,20,0,0,1,.14-7.11,10.34,10.34,0,0,1,1.38-3,3,3,0,0,0,.4-1,12.92,12.92,0,0,1,2.25-4.32,20.9,20.9,0,0,1,12-6.79c4.93-1,10.17-.42,13.83,1.54,1.11.6,1.12.81,0,1.35-.47.23-1.29.68-1.82,1l-1,.56.89.16a11.49,11.49,0,0,1,1.66.45c.8.3,1.9,1,1.9,1.23a2.2,2.2,0,0,1-.59.61,6.43,6.43,0,0,0-1.11,1.24l-.53.76.84.77a5.69,5.69,0,0,1,1.78,3.36,26.93,26.93,0,0,1,.61,6.75v2.84l.42.09a3.72,3.72,0,0,1,1.21.88,3.44,3.44,0,0,1,1.07,1.71,8.56,8.56,0,0,1-1.31,7.1,10.23,10.23,0,0,1-2.66,2.65c-.36.19-.39.28-.48,1.27a14,14,0,0,1-1,4.11,4.14,4.14,0,0,1-1,1.21l-.61.5v8l.43.24A6,6,0,0,1,97,261.16c.29.39,1.7,1.88,3.13,3.3l2.61,2.59,1.62.67a87.56,87.56,0,0,1,12.83,6.64c3.34,2.05,7,4.79,7.5,5.57a30.14,30.14,0,0,1,1.39,5.38c.26,1.32.69,4,2.12,13.5.39,2.52,1.6,12.8,2.27,19.14.07.75.26,2.48.42,3.84s.33,3.24.4,4.19l.12,1.71.92,1.64c1.13,2,1.32,2.53,1.15,3.1a8,8,0,0,1-1,1.93c-.16.18-.16.52,0,2.12.24,2.3.48,8.39.48,12.28a131.9,131.9,0,0,1-.81,14c-.14,1.17-.3,2.53-.34,3-.21,2.34-.94,9.29-1.25,11.8a59.4,59.4,0,0,1-1.11,6.93c-.34,1.45-.38,1.54-1.06,2.24a19.17,19.17,0,0,1-3.63,2.79c-.76.42-.83.51-1.66,2.08-.48.9-1.28,2.26-1.8,3l-.93,1.39-.36,3.91c-1.48,15.92-2.19,21.13-4.14,30.31l-.62,2.94.81,2a27.8,27.8,0,0,1,1.91,6.4l.07,1-1,1.93-1,1.93-.08,5.07c-.17,10.28-.35,17.61-.48,19.68-.08,1.17-.24,3.73-.36,5.7-.33,5.69-.66,8.87-1.79,17.42-1.76,13.37-2.77,19.23-4.13,23.88-.61,2.13-.65,2.22-1.33,2.92a14.29,14.29,0,0,1-1.83,1.5l-1.12.77.25.49a9.71,9.71,0,0,1,.41,1c.23.72,3.13,4.65,5.68,7.71a35.1,35.1,0,0,1,2.49,3.23,9.33,9.33,0,0,1,.84,4.05,12.23,12.23,0,0,1-.86,5.58c-.63,1.59-1,2.05-2.21,2.52a4.88,4.88,0,0,1-2.5.37,20.38,20.38,0,0,1-8.47-2.18,22.73,22.73,0,0,1-2.7-2.48c-1.13-1.15-2.09-2.09-2.14-2.09a3.17,3.17,0,0,0-.49.85c-.39.82-2.41,4.26-5.19,8.81-1.94,3.17-3,4.47-4.82,5.65a24.4,24.4,0,0,1-6.59,2.26c-.68.15-1.55.35-1.94.46a9.91,9.91,0,0,1-3.41.22Zm17-114.52c-.34-6.44-.52-11.79-.69-20.37-.12-5.74-.3-11.27-.48-14.55-.15-2.73-.52-7.89-.56-7.94a11.1,11.1,0,0,0-2.1,1.62l-.88.76.09,1.37c.05.76.21,2.89.35,4.74s.3,4,.34,4.8c.19,3.2.75,8.17,1.72,15.23.29,2.16.57,4.38.62,4.94s.14,1.59.21,2.27c.15,1.39.48,5.31.69,8.3.07,1.09.26,2.85.4,3.91s.31,2.42.37,3l.12,1.1,0-1.85C90.48,451.62,90.37,448.31,90.22,445.29ZM48.84,354.11c.27-1.93.77-5.71,1.1-8.4l.61-4.91-.67-2.23c-1.26-4.17-2.62-10.71-2.62-12.58,0-.33,0-.57-.08-.53a13.52,13.52,0,0,0-.49,1.71c-.22.89-.84,3.12-1.37,5l-1,3.33.43.93a4.53,4.53,0,0,1,.43,1.35,7.25,7.25,0,0,1-1,2.93l-.49.79.13,3.09a107.61,107.61,0,0,0,3.12,20.61l.51,2,.45-4.8c.25-2.64.67-6.38.94-8.3Zm66.2-7.86c.38-1.95.69-3.77.69-4.06a5.1,5.1,0,0,0-.29-1.33,8.12,8.12,0,0,1-.36-1.68,2.4,2.4,0,0,1,.25-1.55l.32-.68-.25-1.75c-.13-1-.35-3-.48-4.56-.26-3-.27-3-.56,0-.09.87-.4,3.29-.69,5.38s-.54,4.23-.54,4.75.21,2.42.47,4.22.51,3.65.56,4.09a3,3,0,0,0,.13.75s.36-1.64.75-3.58Z" transform="translate(0 -31.36)"/><path class="b" d="M837.27,547.19a3,3,0,0,1-1.78-1.15,18,18,0,0,1-3-6.51c-.63-2.43-.3-4.24,1.45-8,.44-.95.91-2.06,1-2.47s.54-1.5.91-2.4a15.89,15.89,0,0,0,1-3.5c.33-1.85,1.47-6.84,2-8.78.15-.57.6-2,1-3.16a10.22,10.22,0,0,0,.75-4.29,95.36,95.36,0,0,0-.51-10.59c-1-9.22-1.55-13.37-3.22-24.3-.75-4.84-1-6.53-2.42-15-.38-2.31-.82-5-1-5.91s-.64-3.53-1.08-5.76a101.88,101.88,0,0,1-2.13-17.29l-.22-3.5-.8-1.44c-2.6-4.71-6.32-11.95-8.06-15.7-1.36-2.93-3.73-8.84-4.91-12.22-.58-1.66-1.61-4.91-2.29-7.21s-1.5-5.08-1.83-6.17a66.52,66.52,0,0,1-2-8.93c-1.47-9.66-1.62-17.11-.48-24.28,0-.27-.26.31-.69,1.28a48.42,48.42,0,0,1-4.16,7.75c-1.32,2-1.4,2.15-1.41,2.82a2.73,2.73,0,0,1-.26,1.17l-.24.47.44,1c.75,1.62.93,2.8.82,5.5,0,1.35,0,3.37.06,4.79.12,1.85.12,2.49,0,2.64-.25.3-.89.23-1.33-.15a5.57,5.57,0,0,1-1.26-2.71c-.21-1.26-1.25-3.3-1.64-3.23s-.58,1.58-.66,4.58c-.08,3.39-.09,3.37,1.27,4.62,1.06,1,1.56,1.72,1.28,1.9s-1.15.29-3.11.17-2.05-.15-2.64-.54A6.91,6.91,0,0,0,795,380a2.63,2.63,0,0,1-1.7-1.48,11.89,11.89,0,0,0-.8-1.32,5.3,5.3,0,0,1-1.11-3,18.32,18.32,0,0,1,.21-6.17c.57-3.52,1.4-5.46,4.39-10.23,1.83-2.92,2.83-5.15,4.92-11,.67-1.87,1.5-4.15,1.85-5.05a71.92,71.92,0,0,0,3.11-11c1.37-6.08,2.14-9.22,2.56-10.5s1.33-3.6,1.7-4.34a1.53,1.53,0,0,0,.12-1.34c-.19-1,0-1.73.44-1.87.23-.07.26-.15.17-.45a1.9,1.9,0,0,1,.23-1.71c.31-.41.33-.59.43-3.05,0-1.43,0-4.09,0-5.9-.18-4.5-.5-17.8-.53-21.76,0-5.6.3-6.75,2.94-10a38.51,38.51,0,0,1,4.86-4.89c.8-.68,1.49-1.31,1.55-1.39a7.3,7.3,0,0,0,.1-1.52c0-.75.1-3.16.21-5.35s.29-6,.41-8.51c.63-14.09,1.67-21.23,4.18-28.75,2.44-7.32,5.77-11.81,10-13.53a11.16,11.16,0,0,1,4.67-.92,9.47,9.47,0,0,1,2.6.24,9.62,9.62,0,0,1,4.81,3.14c.45.58.52.63,1,.56,1.69-.26,4.6,1.79,6.34,4.48a36.88,36.88,0,0,1,3.65,7.89c1.17,3.23,1.52,4.64,3.38,13.31,2.16,10.07,3.22,16.21,4.39,25.59.16,1.25.28,1.75.44,1.85,1.68,1,4.14,2.75,5.22,3.61,2.5,2,4.56,4.3,4.56,5.12a4.28,4.28,0,0,0,.32,1,38.29,38.29,0,0,1,1.81,7.45,87.81,87.81,0,0,1,1.5,11c.74,8.14,1.14,14.13,1.3,19.08l.1,3.15.52,1c.47.87.51,1,.43,1.64a7.29,7.29,0,0,1-.4,1.44c-.31.75-.31.78-.07,1.31a1.68,1.68,0,0,1,0,1.51,4.23,4.23,0,0,0,.21,1.38,96,96,0,0,1,1.92,14.54c.12,1.74.3,4.42.41,6s.23,3.52.28,4.39a144,144,0,0,0,1.53,15.23c.19.87.65,2.54,1,3.71s.91,3,1.2,4,.8,2.78,1.13,3.91l.59,2.06v2.54a14.2,14.2,0,0,1-.36,4.11c-.2.87-.44,2-.53,2.54-.21,1.3-.61,1.95-2.24,3.6s-2,1.83-2.48,1.49-.55-.75-.38-1.6c.1-.53.09-.71,0-.83-.3-.24-.23-1.34.14-2.12.24-.52.29-.76.19-.94a3.2,3.2,0,0,1,.25-2c.26-.78.19-1.12-.8-3.72a11,11,0,0,0-1.14-2.38l-.45-.53-.23.58c-.13.32-.42,1.1-.63,1.73a3.86,3.86,0,0,0-.26,2.4c.28,2.68.13,3.76-.64,4.58-.34.35-.53.46-.83.42-.48-.05-.56-.26-1.21-3.49a23.42,23.42,0,0,0-.69-2.81,9.83,9.83,0,0,1-.47-1.52c-.48-2-.35-3.83.62-9.1a21.37,21.37,0,0,0,.5-5.28,14,14,0,0,0-.5-4.59c-.43-1.82-1.65-5.69-5.1-16.18-2.37-7.22-2.88-11.58-2.17-18.3l.19-1.82-.34-.5a2.52,2.52,0,0,1-.2-2.13c.11-.2,0-.64-.4-1.95-.31-.93-1.08-3.76-1.73-6.28s-1.53-5.85-2-7.39l-.78-2.81-.18.68a90.73,90.73,0,0,1-3.83,10.53c-.2.46-.2.54,0,.75a1.85,1.85,0,0,1-.1,2.29l-.34.49.27.45a2.46,2.46,0,0,1,.06,2.13c-.2.29-.18.36.6,1.44a39.24,39.24,0,0,1,3.45,5.93A64.32,64.32,0,0,1,872,349.38a105.56,105.56,0,0,1-.28,13.8c-.36,3.35-.58,4.78-1.78,11.68-1.81,10.3-2.74,14.64-4.12,19.2-2.29,7.54-7.63,23.77-9.1,27.65-.52,1.36-1.62,4.42-2.45,6.79l-1.51,4.33.09,1.71a10.73,10.73,0,0,0,1.5,5.6,70.94,70.94,0,0,1,5.28,14.3c1.59,6.17,1.73,8.36,1.17,18.73-.47,8.76-.47,8.74-.92,11.46-.49,3-.39,10.36.15,11.34a7,7,0,0,0,.79.71,3.73,3.73,0,0,1,1,1.19c.31.65.31.7.05,2.54a2.58,2.58,0,0,0,.36,1.43,18.73,18.73,0,0,1,1.85,6.6c0,.68.1,1.45.14,1.72a6.42,6.42,0,0,1-.59,3.07,18.19,18.19,0,0,1-4.74,4.52c-2.38,1.59-3.34,2.76-5.78,7.06l-1.19,2.11-.26,1.8c-.14,1-.29,2.15-.34,2.56-.46,4-1.6,6.86-3.62,9-.35.37-1.35,1.26-2.21,2s-2.08,1.78-2.68,2.36a11.4,11.4,0,0,1-3.84,2.57,2.63,2.63,0,0,1-1.69,0ZM823.05,317A.72.72,0,0,1,823,316c.09-.09.08-.29,0-.57a.64.64,0,0,1,.06-.76c.15-.23.17-.38.08-.48a12.06,12.06,0,0,1-.79-1.4l-.65-1.25-.18,1.75c-.1,1-.17,1.85-.16,2s.05,1.19.1,2.38l.09,2.17.88-1.33c.82-1.22.87-1.34.67-1.56Z" transform="translate(0 -31.36)"/><path class="b" d="M246.86,585a2.13,2.13,0,0,1-.48-.81,38.31,38.31,0,0,1-.45-4.56c-.08-1.82-.09-1.86-.52-2.4-1-1.3-1.25-2.33-1.12-5.92.05-1.42.13-2.82.17-3.1l.08-.51-.66.3a5.78,5.78,0,0,1-3.85,0,4.25,4.25,0,0,1-1.9-2.93c-.16-1.19-.19-1.24-.47-1.08a5.92,5.92,0,0,1-1.49.14c-1,0-1.28,0-1.59-.29-.56-.44-.77-1-.93-2.42-.08-.74-.17-1.6-.21-1.92s-.14-.59-.24-.59a16.44,16.44,0,0,1-2.66-.88,3.77,3.77,0,0,1-1.81-3,12.24,12.24,0,0,1,.35-2,13.51,13.51,0,0,0,.34-2c0-.52,0-.55-1-1.11-1.88-1.1-2.64-2.14-2.64-3.62a4.86,4.86,0,0,1,.64-2.27,7.7,7.7,0,0,0,.79-2.74,15.3,15.3,0,0,1,.76-3.93,5.53,5.53,0,0,1,1-.87,4,4,0,0,0,1.41-1.88,4.61,4.61,0,0,0,.7-2.35c.09-1.72-.28-2.36-1.39-2.36-.36,0-.57-.14-1.1-.7a3.17,3.17,0,0,1-1-3.62c.2-.88.2-.92-.08-1.31a5.83,5.83,0,0,0-.9-.91,5.17,5.17,0,0,1-1-1.21c-.48-.84-.5-1.49-.12-3s.35-1.67-.26-2.57a4.57,4.57,0,0,1-1.11-2.45c0-.67.19-.93,2.27-3.16,1.32-1.42,1.43-1.58,1.43-2.08a14.5,14.5,0,0,1,2.14-4.48,44.4,44.4,0,0,1,3.37-4.29,3.56,3.56,0,0,0,.67-.85c0-.08-.22-1.55-.48-3.27-2.62-17.31-4.19-32.82-4.18-41.34,0-2.24,0-3.42.4-10.66l.13-2.77-.4-1.14c-.66-1.91-1.9-5.89-2.12-6.84a11.63,11.63,0,0,1-.21-2.22,7.66,7.66,0,0,1,1.3-4.31,7.43,7.43,0,0,0,.62-1.31,8.61,8.61,0,0,0-.44-1.28c-.8-2-.58-3.09,1.13-5.36a10.06,10.06,0,0,0,.82-1.17c0-.14-1.78-7.41-2.81-11.52-.82-3.24-1.29-5.46-2-9.26-.36-2-1.56-9.85-1.93-12.62-.16-1.21-.65-4.86-1.1-8.12-1.72-12.52-2.08-17.71-2.28-33.6l-.09-7.27-1-1.65A56.18,56.18,0,0,1,213.49,320a12,12,0,0,0-.85-2.47A112.63,112.63,0,0,1,204.86,306c-1.29-2.24-5.18-9.92-6.4-12.61l-.67-1.5-.83-.37c-.45-.2-1.07-.45-1.37-.54a5.47,5.47,0,0,1-3.13-2.43,14.29,14.29,0,0,1-.86-3.4c-.11-.68-.47-2.26-.81-3.51a27.14,27.14,0,0,1-1-4.7,5.55,5.55,0,0,1,1.29-4.46l.5-.55-.33-1.83a45.85,45.85,0,0,1-.79-11.31c.15-2.47.15-2.48-.19-3.29a4.25,4.25,0,0,1-.34-1.66,2.32,2.32,0,0,1,.53-1.66c.49-.75.51-.85.34-1.15a7.72,7.72,0,0,1-.74-2.92,2.16,2.16,0,0,1,1.21-2.21l.7-.42.28-1.16c.15-.64.62-3,1-5.31s1-5.11,1.23-6.31.51-2.51.56-2.93.3-2,.56-3.57.56-3.52.68-4.39a100.62,100.62,0,0,1,7.16-25c.64-1.51,1.64-3.67,2.21-4.8a9.61,9.61,0,0,1,2.43-3.44,21,21,0,0,1,7-4.52,6.48,6.48,0,0,0,1.79-1.28,20.69,20.69,0,0,1,4.87-3.48c5.22-3,12.48-6.36,15.08-7a5.56,5.56,0,0,1,1.66-.1l.92.08,1.1-1.13c.6-.61,1.49-1.56,2-2.09l.89-1-.11-3.61-.12-3.61-.83-.9a11.83,11.83,0,0,1-2.39-3.64c-.8-2-.89-2.51-1-5.66l-.07-2.91-.7-.45a16.93,16.93,0,0,1-2-1.69,8.66,8.66,0,0,1-1.81-2.34c-2.09-4.09-1.81-8,.8-10.81l.83-.91-.42-2c-.23-1.12-.63-3.7-.89-5.73-.87-6.71-.89-7.53-.34-10a11.31,11.31,0,0,1,1.89-4,2.56,2.56,0,0,0,.68-1.62,7.73,7.73,0,0,1,1.37-3.25,6.07,6.07,0,0,1,3.88-2.85,4.75,4.75,0,0,0,.87-.24,12.32,12.32,0,0,1,4.75-4.36,8.44,8.44,0,0,1,4.8-1,11.46,11.46,0,0,1,2.92.23l.79.23.78-.47a4.58,4.58,0,0,1,3.06-.67,8,8,0,0,1,5.71,2.61c.65.61,1.08.92,1.19.85a5.91,5.91,0,0,1,3,.22,6.67,6.67,0,0,1,4.56,4.89c.06.28.2.39.7.52,1.23.33,2.6,2.11,3.35,4.36.87,2.61.9,3.07.9,11.27v7.44l.5.28a9.7,9.7,0,0,1,2.91,3.36,8.16,8.16,0,0,1,.87,4.4c-.11,2.25-.89,4.23-2.76,7.07l-1,1.49.13,2a24.46,24.46,0,0,1-1,9.58,22.93,22.93,0,0,1-3.83,5.92l-.65.72-.09,2.27c-.05,1.25-.13,3.2-.18,4.34l-.09,2.05.41.64.41.63,1.21.07a10.33,10.33,0,0,1,3.68,1c1.36.51,3.15,1.2,4,1.54a46.3,46.3,0,0,1,9,5,4.06,4.06,0,0,1,1.28,2.27c.06.36.31.65,1.2,1.4a42.88,42.88,0,0,1,5.46,5.72c.88,1.64,2.54,7.39,3.39,11.72a185,185,0,0,1,3.44,29.87l.15,4,.76,1.46a7.48,7.48,0,0,1,1.15,3.64,14.58,14.58,0,0,1-.54,3.34c-.13.33-.06.81.39,2.82.83,3.72,1.57,7.91,2,11.33.12,1,.44,3.07.7,4.63.42,2.56,1.15,7.26,1.15,7.43a6.86,6.86,0,0,0,.88.76,5,5,0,0,1,1.09,1.15c.33.7.51,3.15.47,6.34,0,2.68,0,3,.29,4.05a8.14,8.14,0,0,1,.05,4.35,11.93,11.93,0,0,1-2.52,3.55l-1.07,1.1v3c0,4.21-.24,11.08-.56,15.71-.44,6.43-.69,13.6-.5,14.23.05.14.18,1.35.29,2.71s.31,3.06.42,3.81c.25,1.69.57,5.32.69,7.93a19.14,19.14,0,0,1-.13,3.69,111.61,111.61,0,0,1-3.51,13.6c-1.83,5.86-2.09,6.34-4.71,9-2.17,2.17-2.79,2.56-3.57,2.23a1,1,0,0,1-.61-.61,2.35,2.35,0,0,0-.43-.7c-.23-.22-.29-.46-.29-1.07a6.65,6.65,0,0,1,.75-2.61c.68-1.67.71-1.81.44-1.74a.76.76,0,0,1-.56-.12c-.41-.3-.46-1.95-.1-3.33a3.15,3.15,0,0,0,.14-1.71,7.49,7.49,0,0,1,.34-3.58,14.35,14.35,0,0,1,1-2,10,10,0,0,0,1.41-3.43c.17-.81.15-.94-.42-3.49-.33-1.45-.74-3.29-.9-4.08l-.3-1.44-.12.62c-.07.34-.11,2.08-.1,3.88a20.45,20.45,0,0,1-.23,4.63,6.48,6.48,0,0,1-.54,1.75,7.34,7.34,0,0,1-2.63,2.15c-.39.1-.36,0-1.3,6.25-1.16,7.77-2,13.21-2.59,16.4-.34,1.89-.9,5.07-1.25,7.07s-.87,4.87-1.17,6.38-.69,3.68-.88,4.82-.53,2.87-.75,3.84-.53,2.51-.69,3.41c-.55,3.13-1.52,8-2.21,11-1.3,5.75-1.9,8.81-2.8,14.2-.59,3.53-1.12,6.24-1.52,7.76-.34,1.28-.79,3.13-1,4.12a37.78,37.78,0,0,1-3.38,9.4c-1.46,2.9-4.83,10.41-5.68,12.64-1.29,3.4-2.91,7.85-3.71,10.2-.44,1.28-1.12,3.17-1.51,4.19l-.72,1.85.09,1.78c.2,4,.69,8.72,1.87,17.7,1.43,10.93,3.06,21,5.07,31.37a130.19,130.19,0,0,1,2.14,13c.55,5.38.4,6-2,8.36a8.83,8.83,0,0,0-1.4,1.56c0,.21.58,2.17,1.38,4.62a43.49,43.49,0,0,1,1.37,5.68,5,5,0,0,0,1,1.34,13.37,13.37,0,0,1,3.18,5.2,19.49,19.49,0,0,1,.84,5c.41,4.56.41,4.32.15,4.81s-.25,1.34.07,5c.18,2.05.12,2.66-.35,3.45s-.82,1-1.52,1a2,2,0,0,1-1.37-.6,9.09,9.09,0,0,1-1.08-.91,2.68,2.68,0,0,0-.63-.49c-.34-.18-.38-.15-1.08.64-1.74,2-2.77,2.37-3.82,1.45-1.56-1.36-2.22-1.79-2.58-1.65a10.58,10.58,0,0,0-1.49,1.36c-1.32,1.34-2,1.69-2.78,1.48a7.61,7.61,0,0,1-1.65-1.31,7.94,7.94,0,0,0-1.47-1.21,6,6,0,0,0-1.3,1.1c-1.8,1.77-2.95,2.25-4,1.69a7.88,7.88,0,0,1-2.08-1.63c-.12-.19-.27-.34-.34-.34a5.58,5.58,0,0,0-.92.63,12.66,12.66,0,0,1-1.77,1.12,4,4,0,0,1-2.09.56c-1.12.06-1.13.06-1.53-.37ZM220.77,296c.08-1.28.27-3.84.42-5.69s.31-4,.36-4.8l.08-1.45-1.22-1a11.77,11.77,0,0,1-4.15-5.76c-.31-1-.34-1.3-.33-3.77,0-3.93.49-5.84,2-8.15a5.14,5.14,0,0,0,.49-.82,4.69,4.69,0,0,0-.5-.74,11.44,11.44,0,0,1-1.71-3.67,17.66,17.66,0,0,1-.06-6.12,12.46,12.46,0,0,1,2.72-5.43,5,5,0,0,0,.65-.86,10.73,10.73,0,0,0-.54-1.26,16.18,16.18,0,0,1-1.46-7.87,7.07,7.07,0,0,0,0-1.44s-.59,1.31-1.22,2.81a55.4,55.4,0,0,0-3,9.4c-.67,2.66-.7,2.84-.54,3.51a5.12,5.12,0,0,1-.59,3.69l-.64,1.37-.09,2.82c-.12,3.47.13,7.26.48,7.36a7,7,0,0,1,.93.41c1.29.63,1.49,1.5,1.37,6l-.09,3.27.42,1.67c.23.92.54,2.07.68,2.54.55,1.81.25,4-.71,5l-.42.44.92,2.82c.5,1.55,1.23,3.62,1.61,4.61a78.31,78.31,0,0,0,3.57,7.32c.14.16.19-.22.27-1.85.05-1.12.16-3.09.24-4.38Z" transform="translate(0 -31.36)"/><path class="b" d="M444,652a30.06,30.06,0,0,1-11.4-5.42c-5.22-4-6.57-5.36-8.65-8.46a18.3,18.3,0,0,1-2.05-4.87c-.38-1.6-.09-5.31.63-8.15.14-.56.36-1.68.48-2.47s.43-2.52.69-3.84c1-5,2.26-12.47,2.39-13.84a39.63,39.63,0,0,0-.13-8.22c-.16-.92-.36-2.37-.45-3.22l-.18-1.54-.93-.49c-1.48-.76-1.75-1-2.24-2.34a24.19,24.19,0,0,1-1.26-4.93c-.74-3.8-1.07-6.24-2.49-18.73-.29-2.57-.68-6-.88-7.62s-.5-4.34-.7-6c-.34-2.92-.7-5.77-2.66-20.58-.71-5.43-1.46-12.24-2.14-19.42-.61-6.45-.8-13.29-.71-25.94.07-11.62.21-14.39,1.08-22.37l.31-2.77-.43-.8a30.31,30.31,0,0,1-2.73-7.62c-.41-2.44-.24-3.12,2-7.77.82-1.72,1.65-3.55,1.86-4.08s.44-1.12.55-1.32.14-.57-.13-2c-.55-2.82-1.68-9.65-1.91-11.51-1-8.14-1.18-9.81-1.31-11.25-.08-.91-.33-3.23-.54-5.15s-.43-4-.48-4.67-.21-2.55-.36-4.25-.36-4.69-.47-6.66-.24-3.78-.28-4-.16-2.27-.27-4.46-.27-4.72-.34-5.63-.2-2.88-.28-4.39-.23-4-.34-5.49c-.24-3.29-.55-10-.75-16.12-.08-2.46-.22-6.13-.3-8.17s-.17-7.4-.2-11.92l-.06-8.21-1.26-1.36a21.91,21.91,0,0,1-3.1-4l-.37-.7v-7.34a113.24,113.24,0,0,1,.76-15.64c.36-3.2,4.16-26.28,5.17-31.32l.78-3.94-.23-1.75c-.12-1-.26-2.28-.29-2.93-.09-1.5-1.83-22.33-1.95-23.32l-.09-.76-2.64,8c-1.46,4.38-2.83,8.48-3.06,9.13l-.42,1.16.14,2.68a41.06,41.06,0,0,1-.27,9,4.28,4.28,0,0,1-.48,1.16,17.06,17.06,0,0,0-.9,1.46,3.73,3.73,0,0,0-.7,1.78c0,1.19-.42,5.58-.62,6.53-.35,1.65-.84,3.51-1.65,6.18A101.61,101.61,0,0,0,392.31,291c-.45,2.79-.88,7.11-1.18,11.87-.21,3.27-.53,7.68-.68,9.26-.17,1.78-.62,7.68-1,12.9-.16,2.27-.37,5.35-.48,6.86s-.24,3.74-.28,4.94a25.93,25.93,0,0,1-.68,5.7,7.69,7.69,0,0,1-2,2.11l-.75.51,1.42,2.12c2.4,3.6,2.86,4.84,3.08,8.36a56.41,56.41,0,0,0,.75,7.1,40.79,40.79,0,0,1,.78,5.31c0,1,0,1-.34,1.29a2.3,2.3,0,0,1-1.27.34c-1.69.11-2.95-.84-3.94-3a15.54,15.54,0,0,1-1.2-4.13,5.62,5.62,0,0,0-.72-1.6,26.55,26.55,0,0,1-1.27-2.49c-.65-1.52-.61-1.57-1,1.66-.48,3.79-.34,5.42.71,8,.39,1,.76,1.22,2.58,1.8,2.35.75,3.85,1.81,3.85,2.73a5.66,5.66,0,0,1-1.17,2.38c-.76.59-1.18.64-4.94.62H380.7a6.43,6.43,0,0,1-3.65-1.09l-.64-.49-.87.44a3.37,3.37,0,0,1-1.94.45,4.25,4.25,0,0,1-1.55-.21,7.28,7.28,0,0,1-2.48-2.14,3.47,3.47,0,0,0-1.57-1.27,8.17,8.17,0,0,1-2.28-1.77c-1.67-1.66-2.06-2.44-2.59-5.11a9.92,9.92,0,0,0-.6-2.2,11.32,11.32,0,0,1-1.87-4.17,17.58,17.58,0,0,1-.25-4.85,46.24,46.24,0,0,0,.09-9l-.25-3.84-.73-.76a11,11,0,0,1-2-2.57c-.22-.47-.24-1.27-.24-8.69,0-5.27.06-9.08.18-10.77.29-4.25.69-9.22,1-13.1.83-8.89,1.17-13.1,1.58-19.69.27-4.35.54-9.33.62-11.6.31-8.53.78-11.69,2.6-17.49l.64-2.05V250.5c0-1.75.05-3.63.13-4.19a11.43,11.43,0,0,1,2-5.55l1.8-2.37,1.27-1.69.15-3.8c.19-4.9.63-12.47.89-15.54.21-2.4,1.1-8.87,1.58-11.46,2.29-12.47,3.2-16.74,5.67-26.57.86-3.42,2-7.9,2.47-10a65.6,65.6,0,0,1,2-6.79c.6-1.69,1.38-4,1.74-5.13a43.23,43.23,0,0,1,3-7.34c1.26-2.46,2.4-4.12,3.28-4.76a11.09,11.09,0,0,0,.89-.69,32.28,32.28,0,0,1,7.69-5.22,226.25,226.25,0,0,1,27.25-12.07l2.14-.79,1.5-1.72c2-2.28,2.93-3.19,3.82-3.7.67-.38.81-.55,1.45-1.76A12.63,12.63,0,0,1,437,116a17.91,17.91,0,0,1,1.88-1.14c1.24-.68,1.42-.82,1.4-1.11s-.07-1.49-.12-2.91l-.1-2.57-.7-.72a25.26,25.26,0,0,1-3.66-4.43,40,40,0,0,1-1.7-6.65c-.19-1-.49-2.38-.66-3l-.31-1.16-1-.71a11.54,11.54,0,0,1-4.13-4.9c-1.86-3.89-1.85-8.1,0-11.22a6.74,6.74,0,0,1,2.66-2.67,1.62,1.62,0,0,0,.63-.33s-.08-.71-.19-1.46a78.22,78.22,0,0,1-.45-12c.09-6.62.25-7.86,1.29-10.35a11.27,11.27,0,0,1,3.66-4.38,2.92,2.92,0,0,0,1.42-1.89A11,11,0,0,1,443.24,36a7.56,7.56,0,0,0,1.51-.75,9.67,9.67,0,0,1,4-1.46,9.63,9.63,0,0,0,1.62-.34,8.19,8.19,0,0,1,4-1.38,7.92,7.92,0,0,0,1.79-.37,7.16,7.16,0,0,1,2.61-.36,4.77,4.77,0,0,1,2.42.38,2.46,2.46,0,0,0,1.9.22,9.8,9.8,0,0,1,6.52,1.67A7.51,7.51,0,0,1,472,35.85c.13.27.3.34,1.31.47a8.34,8.34,0,0,1,1.91.51,8.72,8.72,0,0,1,3.94,4.85c.27.92.35,1,.93,1.41a12.57,12.57,0,0,1,3.18,3.66,12.47,12.47,0,0,1,.86,4.5,23.88,23.88,0,0,0,.32,2.61c.35,1.65.33,12.79,0,15.85-.44,3.8-.46,3.43.21,3.91,1.65,1.18,3,4.56,3,7.54a9.88,9.88,0,0,1-2,5.78,8,8,0,0,1-2.46,2.28l-.82.53-.31,2.5c-.4,3.21-1.05,7-1.49,8.87a7.75,7.75,0,0,1-2.2,4.09l-1,1.07v8l1.26.89c1.52,1.08,2.13,1.85,3.93,5,.71,1.23,1.88,3.07,2.6,4.09s1.32,1.87,1.33,1.9,1.17.28,2.55.57a128.32,128.32,0,0,1,23.3,6.86c7.23,2.89,10.85,4.9,11.77,6.52a10,10,0,0,1,.59,1.3c.16.41.5,1.19.75,1.72,1,2.07,2.17,6.11,3.9,13.17,2,8.1,5,21.7,6.25,28.27.5,2.56,1.05,5.34,1.24,6.17.42,2,1.61,8.56,2.06,11.46.19,1.24.43,2.73.54,3.29s.44,2.82.74,5c1.67,12,2.13,16.51,2.34,22.67l.13,3.74,1,1.13a20.1,20.1,0,0,1,3.92,6.6c.25.92.25,1.6,0,4.21-.42,4.26-.5,4.89-.81,5.82l-.32.94.27.84c.74,2.34,3.23,11,3.82,13.33,1.42,5.54,2.8,12.22,3.7,18,.22,1.44.75,4.57,1.16,6.95,1.27,7.21,2.58,16.39,3.15,22,.54,5.34.48,10.13-.15,11.35a16.21,16.21,0,0,1-3.27,3.27c-.81.57-1,.76-1.06,1.18-.2,1-.41,9.66-.33,13.48.12,5.54-.06,6.58-1.78,9.87a28,28,0,0,1-2.09,3.25c-.73,1-2.06,2.77-2.94,4-1.71,2.33-2.57,3.16-4.15,4a12.86,12.86,0,0,0-1.44,1c-2.13,1.75-6.06,3.09-9.81,3.36-1.12.08-1.27.06-1.6-.19a1.43,1.43,0,0,1-.43-.55c-.1-.4.33-1.22,1.12-2.14l.7-.82-.29-.31c-.24-.25-.28-.42-.22-.93.2-1.8,3.13-4.73,6.71-6.72,1.06-.58,1-.55,1.77-3.58a8.24,8.24,0,0,0,.35-3.09c-.07-1.27-.57-5.38-.73-6-.2-.82-2.66,4.89-3.41,7.94a19.42,19.42,0,0,1-.61,2.06,25.74,25.74,0,0,1-2,3.65c-.94,1.28-3.4,1-3.58-.37,0-.26-.08-2-.09-4s-.11-5-.21-6.91a44.19,44.19,0,0,1,.32-10.45c.3-1.42,1.51-6.14,1.69-6.61,0-.09-.31-.28-.83-.45-1.56-.52-3.21-1.79-3.5-2.71a38.53,38.53,0,0,1-.3-4.9,93.12,93.12,0,0,0-.7-10.09c-.3-2.68-1.26-8.61-2-12.15-.26-1.29-.66-3.34-.9-4.56s-.7-3.26-1-4.53-1.2-4.71-1.92-7.66c-1.39-5.66-2.7-10.65-2.78-10.57s.11,1.55.3,3.39c.43,4.14.92,9.84,1.38,16,.42,5.6.78,9.22,1.25,12.41s1.19,11,1.07,11.67a12.07,12.07,0,0,0-.11,1.37,3.82,3.82,0,0,1-.61,2,12.83,12.83,0,0,1-2.83,3.92,30,30,0,0,1-7.24,5.36,3.88,3.88,0,0,0-1.06.65c0,.07.21.84.47,1.72a197.69,197.69,0,0,1,4.86,21.35c1.08,5.82,2.21,11.74,4.48,23.33a249.56,249.56,0,0,1,4,25.69,230.76,230.76,0,0,1,1.87,27.8l.13,8.76-.49,2.22c-.75,3.44-.87,3.82-3.37,10.43-4.22,11.18-5.16,13.83-7.81,22.26-4.95,15.7-8,24.11-14.38,39.93-4.07,10-9.76,22.51-12.12,26.56-.42.71-1.28,2.28-1.92,3.48-1.38,2.62-2,3.36-3,3.67a16.08,16.08,0,0,1-3,.6,2.36,2.36,0,0,0-.79.16s.09.43.21.87a48.7,48.7,0,0,1,.61,7.17c0,1.85-.09,1.53,1.87,6.78a101.81,101.81,0,0,0,5.74,12.46c2.63,4.8,3.74,7.16,4.13,8.76.62,2.51.38,3.65-1.22,5.79a11.25,11.25,0,0,1-5.47,3.69c-1.86.63-3.37.42-6.64-.88a51.25,51.25,0,0,1-8.77-4.68,27.63,27.63,0,0,1-4.69-4.74,18.31,18.31,0,0,1-1.66-4.24c-1.58-5.67-2.55-7.71-4.81-10.22l-.56-.62,0,3c0,1.66,0,3.11,0,3.23s0,2.08,0,4.38l0,4.17-.48,1a11.25,11.25,0,0,1-1.29,1.91l-.82.94.6,1.67c1.37,3.81,1.81,6.14,1.64,8.57a74,74,0,0,1-1.34,7.7c-.26,1.11-.28,1.43-.19,5.64.17,8.72.4,12,1,14.74.86,3.69,1.24,10.72.73,13.67a14.78,14.78,0,0,1-2.39,6.31c-.4.64-.94,1.55-1.21,2a8.7,8.7,0,0,1-3.39,3.19A12.52,12.52,0,0,1,444,652ZM458.89,513.6c.45-1.32,1.23-4,1.72-6,2.49-10.1,3.23-13.23,4.26-17.95.47-2.12,2.13-8.52,2.69-10.38a122.28,122.28,0,0,1,7.17-18.8,92.7,92.7,0,0,1,6.48-10.95,6.89,6.89,0,0,0,.62-.83,10.18,10.18,0,0,0-.93-1,20.34,20.34,0,0,1-2.79-3.56,1.86,1.86,0,0,1-.11-1.64c.11-.11,0-.28-.51-.6a12.76,12.76,0,0,1-3.09-3.13c-.73-1.12-1-1.87-.86-2.45a6.54,6.54,0,0,1,1.1-2.08l.36-.44-.22-.71a29.25,29.25,0,0,1-.91-4.9c-.76-5.21-2.32-14.12-3.57-20.31-1.13-5.66-2.6-11.62-4.11-16.68-.61-2-1.45-4.92-1.88-6.41a23,23,0,0,0-.86-2.71c-.09,0-1.52,7.33-2.48,12.76-1.63,9.19-2.61,17-3.63,29.09-.46,5.45-.59,7.68-.76,12.7-.19,5.45-.45,9.43-1,14.39s-.51,5.31-.08,6.45c.78,2.06,2.84,8.9,3,10.08a5.53,5.53,0,0,1-.35,3.54c-.5,1.43-.48,1.41-2.1,3.75a9.34,9.34,0,0,0-1.36,2.31c0,.17.18,1.62.36,3.22.45,3.84.86,8.58,1,12,.37,7.26.58,10.55,1,16.6.18,2.41.46,6.91.48,7.69C457.69,517,457.92,516.42,458.89,513.6Z" transform="translate(0 -31.36)"/><path class="b" d="M690.35,584.43a10.72,10.72,0,0,1-4-1.8c-3.74-2.69-6.06-5.45-6.44-7.66a74.9,74.9,0,0,1-.42-10.12c0-5.75,0-5.66-1-12.55a41.12,41.12,0,0,0-1.29-6,13,13,0,0,1-.51-6.08,14,14,0,0,1,1.17-4.06,22.45,22.45,0,0,0,1-2.78c.31-1.12.72-2.46.9-3l.32-1-.6-1c-1.3-2.11-1.34-3.07-.19-5.06l.74-1.29v-1.51a34.36,34.36,0,0,0-.32-5.2,3,3,0,0,0-.29.6,17.36,17.36,0,0,1-1.75,2.92,42.23,42.23,0,0,1-4.92,4.26,18.64,18.64,0,0,1-2.31,1.26,20,20,0,0,0-2.21,1.19,38.15,38.15,0,0,0-5.16,5.88c-.72,1-2,2.87-2.79,4.11s-2,2.88-2.53,3.64-1.57,2.1-2.2,3c-1.63,2.3-2.61,3.19-4.26,3.84a33.91,33.91,0,0,1-7.73,1.56c-2.74.29-3.42.2-5.39-.76a5.17,5.17,0,0,1-2.88-2.59l-.39-.79v-7.82l.68-1.5a15.67,15.67,0,0,1,3.08-4.67c.63-.68,2-2.32,3.1-3.64s2.86-3.45,4-4.73,2.28-2.74,2.61-3.23a40.89,40.89,0,0,0,4-10.3c.07-.47,0-.51-.31-.6a2,2,0,0,1-1.41-2.94l.28-.47-.36-.37a3,3,0,0,1-.16-3.53,12.7,12.7,0,0,0,.58-1.44l.24-.78-.7-1.55c-.82-1.81-3.5-8.4-4.35-10.68a229.11,229.11,0,0,1-6.87-23.4c-1.86-8.18-4.47-22.77-5.07-28.4a67.63,67.63,0,0,1,.06-11.66c.08-.61.2-2.62.28-4.46s.26-4.48.41-5.84.35-4.29.42-6.51.2-4.92.28-6,.19-6.49.26-12.08c.13-10.87.18-12.38.49-16.54.1-1.47.26-4.28.34-6.24s.29-5.23.48-7.27.43-4.79.55-6.11c.27-3.23,1.48-12.89,1.92-15.37l1.09-6.31c.73-4.19,1.74-9.35,2.28-11.59.26-1.09,1.09-11.16,1.09-13.3,0-1-.25-1.68-2.78-7.22-1.47-3.24-2.54-5.82-3.84-9.26-.77-2.06-1.06-2.7-1-2.25a45.21,45.21,0,0,1,.32,6.16,21.3,21.3,0,0,1-1.33,6.1,6.12,6.12,0,0,0-.42,2.42,42.81,42.81,0,0,1-1.76,10.48c-.3,1.06-.86,3.07-1.25,4.46-1.06,3.8-2.82,9.27-3.72,11.61a101.6,101.6,0,0,0-5,17.42,24,24,0,0,0-.28,6c.47,1.78,1.35,5.07,1.65,6.18a59.79,59.79,0,0,1,1.66,7.27,15,15,0,0,1-.17,2.95,36.44,36.44,0,0,0-.14,6.94c.12,1,.11,1-.26,1.27-.87.69-2.5.06-3.36-1.29a13.8,13.8,0,0,1-1.29-5.13l-.17-1.86-1-1.71-1.09-1.95a75.92,75.92,0,0,0,.09,8.95c.36,1.49.7,2.47.88,2.47a12.38,12.38,0,0,1,2.75,2.08,8.28,8.28,0,0,1,.87,1.49,4.7,4.7,0,0,0,.65,1.13,7.57,7.57,0,0,1,1.84,4,1.7,1.7,0,0,0,.41.93,2.57,2.57,0,0,1,.69,1.81,1.07,1.07,0,0,1-.42.95,2.64,2.64,0,0,1-2.11.61,22.38,22.38,0,0,1-7-3,15.06,15.06,0,0,1-4.08-4.76c-.2-.41-.73-1.34-1.17-2.06a30.4,30.4,0,0,1-4.12-11.25c-.11-.79-.28-1.81-.36-2.26s-.17-4.21-.2-10.41c0-9.24-.07-9.69-.4-12.29a112.5,112.5,0,0,1-.86-17.37,107.53,107.53,0,0,1,.93-14.07,87.94,87.94,0,0,1,1.52-9.74c.41-1.81,2.23-7.48,3.28-10.22l1.94-5.15,1.4-3.77,0-5.63a141.88,141.88,0,0,1,.74-16.6c.42-4.78.45-5.52.32-6.87-.2-2.08-.2-10.67,0-13a51.71,51.71,0,0,1,2-10.77,44.26,44.26,0,0,1,3.44-9.07,32.49,32.49,0,0,1,5.06-5.25c.53-.38,1.83-1.42,2.89-2.29a135.49,135.49,0,0,1,15-11c.83-.52,1.86-1.22,2.29-1.54,1-.72,6.83-6.18,6.93-6.43a58.63,58.63,0,0,0-.51-6.51l-.27-2.27-.44-.34a11.51,11.51,0,0,1-2.49-2.59,12.58,12.58,0,0,1-1-4.27c-.12-.94-.32-2.38-.44-3.19l-.22-1.48-.65-.47a10.53,10.53,0,0,1-3.15-3.81,9.74,9.74,0,0,1-.9-6.53,9.48,9.48,0,0,1,2-4l.54-.48-.54-1.86a21.92,21.92,0,0,1,0-12.91,16.43,16.43,0,0,1,3.39-6.27,30,30,0,0,1,4.35-3.85,31.61,31.61,0,0,1,10.69-5c1.64-.45,6.13-1.4,7.13-1.52a19.53,19.53,0,0,0,8.58-3.17,7.65,7.65,0,0,0,1.41-1.15c.17-.23.39-.42.49-.42.34,0,.65.5.73,1.2.13,1.13-.27,2.55-1.33,4.66-.66,1.32-.89,1.91-.78,2a5.14,5.14,0,0,0,2.41.14,7.59,7.59,0,0,0,3.15-1.53c.4-.31.79-.52.87-.47a2.64,2.64,0,0,1,.53,1.84,9.12,9.12,0,0,1-1.19,3.82l-.49.87.84.84a10.14,10.14,0,0,1,2.77,4.64,24.35,24.35,0,0,1,1.16,5.75,24,24,0,0,1-1,10.54l-.45,1.42.46.61c.69.9.91,1.77,1,3.82a8.54,8.54,0,0,1-.17,2.68,11.74,11.74,0,0,1-2,4l-.73.89-.38,2.81a40.65,40.65,0,0,1-1.52,7.62,5.76,5.76,0,0,1-1.92,3c-.56.55-.87,1-.83,1.09s.15,1.57.27,3.23c.24,3.65.38,4.44.79,4.79.17.14,2,1.11,4.15,2.15a25.44,25.44,0,0,0,5.77,2.39c1,.27,3.37,1,5.14,1.57a63.42,63.42,0,0,1,14.64,6.85,41.89,41.89,0,0,1,7.39,5.48c2.63,2.42,4.39,4.5,4.8,5.67.12.33.55,1.29,1,2.12,1.6,3.23,3.44,10,4.6,16.87.6,3.59,1.21,7.92,1.37,9.75.27,3.05.82,7.25,1.31,10,.76,4.26,1,5.76,1.85,13.38.4,3.5,1,5.46,2,6.77,2.29,2.89,2.86,4.46,3.12,8.53.09,1.41.18,1.76,1.23,4.94,2.59,7.79,4.07,14.78,5.54,26.21A106.14,106.14,0,0,1,749,324a76.46,76.46,0,0,1-.15,12c-.12,1.06-.27,3.5-.34,5.44s-.23,4.93-.36,6.65a55.21,55.21,0,0,0-.14,6,40.78,40.78,0,0,1-.87,10.63,16.58,16.58,0,0,0-.35,1.65c0,.37-.21,1.24-.35,1.92s-.36,1.84-.48,2.59a18.24,18.24,0,0,1-.5,2.19,55.84,55.84,0,0,1-2.63,5.69,25.65,25.65,0,0,1-3.33,3.87c-4.62,4.45-7.36,6.39-9.45,6.67-.51.07-.61,0-.87-.29a1.62,1.62,0,0,1-.3-1.15,8.69,8.69,0,0,1,.89-3.37c.26-.45.29-.63.18-.9a3.15,3.15,0,0,1-.05-1.07,7.68,7.68,0,0,1,2.25-4.3c.53-.58.71-.88.71-1.2a4.73,4.73,0,0,1,1.28-2.71,3,3,0,0,0,1-2.08,12,12,0,0,0,.18-3.09,18.24,18.24,0,0,0-.64-4.49,7.92,7.92,0,0,0-.77,1.26,17.44,17.44,0,0,1-1.25,2,41.36,41.36,0,0,0-2.8,5.27,6.1,6.1,0,0,1-1,1.46,3.14,3.14,0,0,1-1.69,1c-1,.3-1,.3-1.56.05-.94-.42-1.09-1.14-.58-2.8a82.36,82.36,0,0,0,2-10.77,11.61,11.61,0,0,1,1-3.65,54.54,54.54,0,0,1,4.78-6.9l.76-.95v-1c0-.54-.06-1.42-.12-2-.11-.92-.09-1,.24-1.6a3.88,3.88,0,0,1,.71-.89.88.88,0,0,0,.34-.46c0-.35-3.23-8.63-4.36-11.16-.6-1.36-1.6-3.89-2.22-5.63s-1.55-4.2-2.06-5.48-1.29-3.45-1.72-4.81-1-3.3-1.37-4.32a34.26,34.26,0,0,1-1.92-9.13,76.17,76.17,0,0,1-.23-10.28c.15-3.26.12-3.47-.8-5.67a95.32,95.32,0,0,0-4.69-8.68c-.71-1.17-1.53-2.6-1.83-3.19a5.34,5.34,0,0,0-.63-1.06,2.3,2.3,0,0,0-.25.79c-.52,2.34-2.76,10.06-4.48,15.47l-1,3.29.15,2c.38,5,.46,7.29.49,14.41,0,6.51.07,7.77.26,8.65.27,1.19.64,3.63,1,6.86.16,1.24.53,4,.83,6.1s.69,5.36.89,7.21.47,4.44.62,5.76c.32,2.87,1,12.23,1.3,17.77.11,2.19.27,4.94.34,6.11.18,2.72.4,11,.5,18.73.09,6.78-.18,16.39-.64,22.85-.71,10-2.33,25.28-3.57,33.75l-.28,1.85.28.35a7.08,7.08,0,0,1,1.79,4.23,6.74,6.74,0,0,1-1.34,3.87l-.87,1.44.21,1.3a96.1,96.1,0,0,1,1.31,14,64.15,64.15,0,0,1-1.31,12.81,150.58,150.58,0,0,1-6,24.15c-.49,1.36-1.33,4.05-1.86,6s-1.21,4.33-1.51,5.32c-.53,1.76-.54,1.83-.34,2.39a5,5,0,0,1,.15,2.91,1.64,1.64,0,0,0,.06,1.49,3.27,3.27,0,0,1-.24,3,3.38,3.38,0,0,1-1.43,1.09c-.56.28-1,.59-1,.69.06.51,1.74,8.65,2.09,10.12.45,1.9,2.71,9.82,3.65,12.83.33,1.06.85,2.82,1.15,3.91s.68,2.35.83,2.8a13.64,13.64,0,0,1,.5,6.55,25,25,0,0,1-7.4,13.55c-2.47,2.23-5.07,3.19-7.47,2.76Zm-12-83.45c-.09-1.08-.37-3.73-.62-5.88-.78-6.5-.83-7.14-.81-11.05a41,41,0,0,1,.38-6.51,55.16,55.16,0,0,1,1.93-9.56c1.08-4.12,1.6-5.78,4.36-13.82l.71-2.05-.38-.63a29.77,29.77,0,0,1-2.25-4.8,7.32,7.32,0,0,1-.51-3.52,8.53,8.53,0,0,1,.51-3.68l.51-1.63-.69-3c-1.17-5-3.64-16.89-4.44-21.29-1-5.64-2-12.24-2.68-18.49-.22-1.92-.43-3.52-.46-3.56s-3.41,6.57-4.45,8.95c-.46,1.05-1.8,4.09-3,6.75-2.48,5.62-3.12,7.19-4.46,11-.54,1.54-1.12,3.1-1.27,3.46l-.28.66.42.92a22.23,22.23,0,0,1,1.67,5.1c0,.81-.35,1.83-1.35,3.92l-.79,1.65,2,4.32a79.84,79.84,0,0,1,4.23,10.47c.19.74.59,2.91.89,4.81l.56,3.45.11,6.31c.06,3.48.15,6.63.19,7s.18,2,.3,3.57c.72,9.76,1.52,14,3.09,16.43,1.08,1.67,1.08,4.66,0,6.8l-.42.83.93.15a6.68,6.68,0,0,1,3.93,2.26,15.64,15.64,0,0,1,1.71,2c.26.4.5.69.53.66a17,17,0,0,0-.1-2Z" transform="translate(0 -31.36)"/><path class="a" d="M436.59,153.9A9.37,9.37,0,0,1,422.48,162a9,9,0,0,1-1.59-1.17,9.38,9.38,0,1,1,15.7-6.92Z" transform="translate(0 -31.36)"/><path class="c" d="M429.46,151.87l-8.57,8.95a9,9,0,0,0,1.59,1.17l7-7.35,5.16,4.94a9.37,9.37,0,0,0,1-1.72Z" transform="translate(0 -31.36)"/><path class="d" d="M436.59,153.9A9.37,9.37,0,0,1,422.48,162a9,9,0,0,1-1.59-1.17,9.38,9.38,0,1,1,15.7-6.92Z" transform="translate(0 -31.36)"/><path class="a" d="M686.5,243.12A20.15,20.15,0,1,1,666.35,223,20,20,0,0,1,686.5,243.12Z" transform="translate(0 -31.36)"/><path class="c" d="M671.18,238.76,652.76,258a20.17,20.17,0,0,0,3.41,2.52l15.14-15.81,11.08,10.61a19.94,19.94,0,0,0,2.23-3.68Z" transform="translate(0 -31.36)"/><path class="d" d="M686.5,243.12A20.15,20.15,0,1,1,666.35,223,20,20,0,0,1,686.5,243.12Z" transform="translate(0 -31.36)"/></svg>