<svg xmlns="http://www.w3.org/2000/svg" viewBox="0 0 195 234.49"><defs><style>.a{fill:#ffd140;fill-rule:evenodd;}.b{fill:#fff;stroke:#131313;stroke-miterlimit:10;stroke-width:2px;}.c{fill:#414141;}</style></defs><title>Выведи деньги</title><path class="a" d="M97.5,39.49A97.5,97.5,0,1,1,0,137a97.5,97.5,0,0,1,97.5-97.5Z"/><path class="b" d="M6.54,140.73S9.84,151.6,19.33,154c0,0,15.4,49.75,116.33,43.28,0,0,8.61,7.92,20.76,8.86s6.31-16.33,6.31-16.33,43.36-58.56-8.1-127.9L110.44,45.65S38,51.62,16,123.1C16,123.1,2.58,133.46,6.54,140.73Z"/><path class="b" d="M118.46,33.06c-1.64-.61-3.65.73-4.48,3s-.19,4.6,1.45,5.2l34.3,12.64c1.63.6,3.64-.75,4.47-3s.19-4.58-1.45-5.19Z"/><path class="b" d="M157.19,42.77l18-16.74-3.5-6.36C164.91,12.24,153.5,18.45,146,15s3.66-1,1.07-8.36-33.26-5.35-33.26-5.35C113.51,6.6,117,28,117,28Z"/><path class="c" d="M124.64,135.42a23.35,23.35,0,0,0-6.57-10.82c-2.31-2.28-6.81-5.6-13.39-9.87-8.1-5.25-10.21-7.76-10.74-8.79a5.91,5.91,0,0,1-.31-5.13,7.2,7.2,0,0,1,4.94-4.44c2.66-.89,6.45-.44,11.26,1.33,4.59,1.69,7.71,3.9,9.27,6.55s1.81,5.83.87,9.61l-.14.55a1.45,1.45,0,0,0,.91,1.73l.1,0,9.7,2.77a1.46,1.46,0,0,0,1.79-1l.18-.54a23.32,23.32,0,0,0,.63-12.69,21.93,21.93,0,0,0-6.65-11.17,32,32,0,0,0-3.44-2.77l2.72-7.39a1.47,1.47,0,0,0-.86-1.88l-13.63-5a1.46,1.46,0,0,0-1.87.87l-2.5,6.79a32.76,32.76,0,0,0-6.91-.49,20.81,20.81,0,0,0-11.87,4,19.92,19.92,0,0,0-7,9.23,18.17,18.17,0,0,0-.8,10.21,21.32,21.32,0,0,0,5.27,9.69c2.05,2.29,6,5.37,11.61,9.14a125.66,125.66,0,0,1,10.35,7.38,12.52,12.52,0,0,1,3.91,5.17,7.19,7.19,0,0,1-.17,4.77,8,8,0,0,1-3.17,4,11.07,11.07,0,0,1-6.09,1.63,23.93,23.93,0,0,1-8.63-1.64,24.8,24.8,0,0,1-8.7-5.25,13.89,13.89,0,0,1-4.18-6.59,17.35,17.35,0,0,1,.28-8.16l.13-.56a1.47,1.47,0,0,0-.92-1.71l-.12,0-9.59-2.61a1.47,1.47,0,0,0-1.77.94l-.18.53a25.89,25.89,0,0,0-.8,14.32,24.53,24.53,0,0,0,7.2,12.38,33.48,33.48,0,0,0,6,4.49l-2.77,7.51a1.45,1.45,0,0,0,.87,1.87l13.62,5a1.46,1.46,0,0,0,1.88-.86L97.19,161a31.5,31.5,0,0,0,6.89.26,23.29,23.29,0,0,0,12.41-4.46,21.22,21.22,0,0,0,7.37-9.75A19.56,19.56,0,0,0,124.64,135.42Z"/></svg>