<svg xmlns="http://www.w3.org/2000/svg" viewBox="0 0 195 196.37"><defs><style>.a,.e{fill:#ffd140;}.b{fill:#fff;}.b,.d,.e{fill-rule:evenodd;}.c{fill:none;stroke:#252525;stroke-width:2px;}.d{fill:#414141;}</style></defs><title>Подбери оффер</title><circle class="a" cx="97.5" cy="98.87" r="97.5"/><path class="b" d="M28.14,1H79.25a10,10,0,0,1,10,10V62.32a10,10,0,0,1-10,10H28.14a10,10,0,0,1-10-10V11A10,10,0,0,1,28.14,1Z"/><path class="c" d="M28.14,1H79.25a10,10,0,0,1,10,10V62.32a10,10,0,0,1-10,10H28.14a10,10,0,0,1-10-10V11A10,10,0,0,1,28.14,1Z"/><path class="b" d="M114.47,1h51.09a10,10,0,0,1,10,10V62.32a10,10,0,0,1-10,10H114.47a10,10,0,0,1-10-10V11A10,10,0,0,1,114.47,1Z"/><path class="c" d="M114.47,1h51.09a10,10,0,0,1,10,10V62.32a10,10,0,0,1-10,10H114.47a10,10,0,0,1-10-10V11A10,10,0,0,1,114.47,1Z"/><path class="b" d="M28.14,84.14H79.25a10,10,0,0,1,10,10v51.3a10,10,0,0,1-10,10H28.14a10,10,0,0,1-10-10V94.14A10,10,0,0,1,28.14,84.14Z"/><path class="c" d="M28.14,84.14H79.25a10,10,0,0,1,10,10v51.3a10,10,0,0,1-10,10H28.14a10,10,0,0,1-10-10V94.14A10,10,0,0,1,28.14,84.14Z"/><path class="b" d="M114.47,84.14h51.09a10,10,0,0,1,10,10v51.3a10,10,0,0,1-10,10H114.47a10,10,0,0,1-10-10V94.14A10,10,0,0,1,114.47,84.14Z"/><path class="c" d="M114.47,84.14h51.09a10,10,0,0,1,10,10v51.3a10,10,0,0,1-10,10H114.47a10,10,0,0,1-10-10V94.14A10,10,0,0,1,114.47,84.14Z"/><polygon class="d" points="31.68 38.68 51.73 58.22 79.88 22.85 71.09 15.61 50.38 42.22 38.59 30.6 31.68 38.68"/><polygon class="e" points="115.92 38.68 135.96 58.22 164.12 22.85 155.33 15.61 134.62 42.22 122.83 30.6 115.92 38.68"/><polygon class="d" points="31.68 121.07 51.73 140.61 79.88 105.24 71.09 98 50.38 124.61 38.59 112.99 31.68 121.07"/><polygon class="d" points="115.92 121.07 135.96 140.61 164.12 105.24 155.33 98 134.62 124.61 122.83 112.99 115.92 121.07"/></svg>