<svg xmlns="http://www.w3.org/2000/svg" viewBox="0 0 195 212.39"><defs><style>.a,.e{fill:#ffd140;}.a,.b,.c,.f{fill-rule:evenodd;}.b{fill:#fff;}.b,.c{stroke:#252525;stroke-width:2px;}.c{fill:#252525;}.d{fill:#414141;}.f{fill:#131313;}</style></defs><title>Пройди регистрацию</title><path class="a" d="M97.72,17.8A97.5,97.5,0,1,1,.22,115.3h0a97.5,97.5,0,0,1,97.5-97.5Z" transform="translate(-0.22 -0.41)"/><path class="b" d="M139.25,1.41l-101.5.37a10,10,0,0,0-10,10V169.25a10,10,0,0,0,10,10H157.34a10,10,0,0,0,10-10l-.09-140.84C167.25,25.84,142.2,1.41,139.25,1.41Z" transform="translate(-0.22 -0.41)"/><path class="c" d="M140.3,2.59a.08.08,0,0,0-.13.05c.24,10,.36,14.75.36,14.75.14,5.52,4.66,9.34,10.24,9.76H166a.08.08,0,0,0,.05-.14C155.27,16.46,148.85,11,140.3,2.59Z" transform="translate(-0.22 -0.41)"/><path class="d" d="M50.75,39.41h92a4.49,4.49,0,0,1,4.5,4.5h0a4.5,4.5,0,0,1-4.5,4.5h-92a4.5,4.5,0,0,1-4.5-4.5h0A4.49,4.49,0,0,1,50.75,39.41Z" transform="translate(-0.22 -0.41)"/><path class="d" d="M50.75,62.41h92a4.49,4.49,0,0,1,4.5,4.5h0a4.5,4.5,0,0,1-4.5,4.5h-92a4.5,4.5,0,0,1-4.5-4.5h0A4.49,4.49,0,0,1,50.75,62.41Z" transform="translate(-0.22 -0.41)"/><path class="d" d="M50.75,85.41h92a4.49,4.49,0,0,1,4.5,4.5h0a4.5,4.5,0,0,1-4.5,4.5h-92a4.5,4.5,0,0,1-4.5-4.5h0A4.49,4.49,0,0,1,50.75,85.41Z" transform="translate(-0.22 -0.41)"/><path class="d" d="M50.75,108.41h92a4.49,4.49,0,0,1,4.5,4.5h0a4.5,4.5,0,0,1-4.5,4.5h-92a4.5,4.5,0,0,1-4.5-4.5h0A4.49,4.49,0,0,1,50.75,108.41Z" transform="translate(-0.22 -0.41)"/><rect class="e" x="73.03" y="138" width="49" height="15" rx="5.5"/><path class="f" d="M93.11,149.34a3.64,3.64,0,0,0,1.77-.42,3.05,3.05,0,0,0,1.22-1.17,3.52,3.52,0,0,0,0-3.39,3.09,3.09,0,0,0-1.22-1.16,3.9,3.9,0,0,0-3.52,0,3.09,3.09,0,0,0-1.22,1.16,3.52,3.52,0,0,0,0,3.39,3.05,3.05,0,0,0,1.22,1.17,3.67,3.67,0,0,0,1.75.42Zm0-1.28a1.84,1.84,0,0,1-1.36-.56,2.24,2.24,0,0,1,0-2.9,2,2,0,0,1,2.73,0,2.22,2.22,0,0,1,0,2.9,1.85,1.85,0,0,1-1.37.56Zm10.1,1.2H105l-2.48-3.33,2.32-3.08h-1.6l-1.9,2.59h-1.2v-2.59h-1.5v6.41h1.5v-2.57h1.16Z" transform="translate(-0.22 -0.41)"/></svg>