<svg xmlns="http://www.w3.org/2000/svg" viewBox="0 0 195 213.21"><defs><style>.a{fill:#ffd140;}.b,.e{fill:#fff;}.b{stroke:#131313;stroke-width:2px;}.c{isolation:isolate;}.d{fill:#414141;}</style></defs><title>Дождись ответа менеджера</title><circle class="a" cx="97.5" cy="115.71" r="97.5"/><path class="b" d="M129.17,143H83.74c-10.65,0-14.29-7.71-14.29-15.41V71.38c0-6.1,2.39-12.2,13.26-12.2h82.73c6.37,0,13.79,3.56,13.79,13.85v57.21c0,7.69-5.83,12.72-10.08,12.72H157V179.3Z"/><g class="c"><circle class="d" cx="138.21" cy="113.22" r="13.87"/><circle class="d" cx="110.87" cy="84.72" r="13.87"/><circle class="d" cx="125.07" cy="99.59" r="25.92"/></g><path class="e" d="M131.79,91.8h6.73s.24-11.65-14.18-11.65S110,90.12,110.05,91.8c.1,3,2.91,7.63,13,9.62,9.43,1.85,9.74,5.26,9.74,5.78s0,5.56-8.28,5.56a9,9,0,0,1-9.32-7.47h-6.08s-.9,12.65,15.4,12.65,14.62-10.87,14.62-11.52,1.28-7.54-13.85-10.74c-10-2.07-8.54-4.66-8.54-5.44s.56-4.65,7.4-4.65A7.31,7.31,0,0,1,131.79,91.8Z"/><path class="b" d="M61.5,84.79h45.42c10.65,0,14.3-7.71,14.3-15.42V13.2C121.22,7.1,118.83,1,108,1H25.22C18.86,1,11.44,4.57,11.44,14.85V72.07c0,7.69,5.83,12.72,10.07,12.72h12.2v36.33Z"/><polygon class="d" points="52.93 65.39 64.28 55.78 82.17 67.85 93 14.85 30 38.37 47.95 45.07 52.93 65.39"/><polygon class="e" points="53.36 56.52 50.74 44.58 81.61 24.89 57.23 46.94 53.36 56.52"/></svg>